<svg width="24" height="23" viewBox="0 0 24 23" fill="none" xmlns="http://www.w3.org/2000/svg">
<g filter="url(#filter0_d_448_1247)">
<path fill-rule="evenodd" clip-rule="evenodd" d="M14.757 1.37146C15.6351 0.493329 16.8262 0 18.068 0C19.3099 0 20.5009 0.493329 21.379 1.37146C22.2571 2.24959 22.7505 3.4406 22.7505 4.68246C22.7505 5.92433 22.2571 7.11533 21.379 7.99346L11.893 17.4795C11.351 18.0215 11.033 18.3395 10.677 18.6165C10.2584 18.9445 9.80835 19.2228 9.32702 19.4515C8.92102 19.6445 8.49302 19.7875 7.76702 20.0295L4.43502 21.1395L3.63302 21.4075C3.31405 21.5139 2.97172 21.5295 2.64442 21.4523C2.31712 21.3751 2.0178 21.2082 1.78001 20.9705C1.54223 20.7327 1.37539 20.4334 1.2982 20.1061C1.22102 19.7788 1.23653 19.4364 1.34302 19.1175L2.72102 14.9845C2.96302 14.2575 3.10602 13.8295 3.29902 13.4225C3.52835 12.9425 3.80668 12.4925 4.13402 12.0725C4.41002 11.7185 4.72902 11.3995 5.27102 10.8575L14.757 1.37146ZM4.40002 19.5715L7.24102 18.6235C8.03202 18.3595 8.36802 18.2465 8.68102 18.0975C9.06235 17.9148 9.42002 17.6938 9.75402 17.4345C10.027 17.2205 10.279 16.9715 10.869 16.3815L18.439 8.81146C17.4011 8.44368 16.459 7.84771 15.682 7.06746C14.9025 6.29029 14.3072 5.34816 13.94 4.31046L6.37002 11.8805C5.78002 12.4695 5.53002 12.7205 5.31702 12.9945C5.05702 13.3278 4.83602 13.6855 4.65402 14.0675C4.50502 14.3805 4.39202 14.7165 4.12802 15.5075L3.18002 18.3505L4.40002 19.5715ZM15.155 3.09346C15.19 3.26846 15.247 3.50646 15.344 3.78346C15.6366 4.62051 16.1153 5.38025 16.744 6.00546C17.3689 6.6341 18.1283 7.11278 18.965 7.40546C19.243 7.50246 19.481 7.55946 19.656 7.59446L20.318 6.93246C20.9113 6.335 21.2436 5.52676 21.2421 4.68477C21.2407 3.84278 20.9055 3.0357 20.3102 2.44032C19.7148 1.84494 18.9077 1.50981 18.0657 1.50834C17.2237 1.50687 16.4155 1.83917 15.818 2.43246L15.155 3.09346Z" fill="#058684"/>
</g>
<defs>
<filter id="filter0_d_448_1247" x="-2.75012" y="0" width="29.5006" height="29.5006" filterUnits="userSpaceOnUse" color-interpolation-filters="sRGB">
<feFlood flood-opacity="0" result="BackgroundImageFix"/>
<feColorMatrix in="SourceAlpha" type="matrix" values="0 0 0 0 0 0 0 0 0 0 0 0 0 0 0 0 0 0 127 0" result="hardAlpha"/>
<feOffset dy="4"/>
<feGaussianBlur stdDeviation="2"/>
<feComposite in2="hardAlpha" operator="out"/>
<feColorMatrix type="matrix" values="0 0 0 0 0 0 0 0 0 0 0 0 0 0 0 0 0 0 0.25 0"/>
<feBlend mode="normal" in2="BackgroundImageFix" result="effect1_dropShadow_448_1247"/>
<feBlend mode="normal" in="SourceGraphic" in2="effect1_dropShadow_448_1247" result="shape"/>
</filter>
</defs>
</svg>
