<svg width="11" height="11" viewBox="0 0 11 11" fill="none" xmlns="http://www.w3.org/2000/svg">
<path d="M8.59375 4.29687C8.59375 6.4423 6.21371 8.67668 5.41449 9.36676C5.34004 9.42274 5.24941 9.45302 5.15625 9.45302C5.06309 9.45302 4.97246 9.42274 4.89801 9.36676C4.09879 8.67668 1.71875 6.4423 1.71875 4.29687C1.71875 3.38519 2.08091 2.51085 2.72557 1.8662C3.37023 1.22154 4.24457 0.859375 5.15625 0.859375C6.06793 0.859375 6.94227 1.22154 7.58693 1.8662C8.23159 2.51085 8.59375 3.38519 8.59375 4.29687Z" stroke="#171919" stroke-opacity="0.6" stroke-width="0.859375" stroke-linecap="round" stroke-linejoin="round"/>
<path d="M5.15625 5.58594C5.86818 5.58594 6.44531 5.0088 6.44531 4.29688C6.44531 3.58495 5.86818 3.00781 5.15625 3.00781C4.44432 3.00781 3.86719 3.58495 3.86719 4.29688C3.86719 5.0088 4.44432 5.58594 5.15625 5.58594Z" stroke="#171919" stroke-opacity="0.6" stroke-width="0.859375" stroke-linecap="round" stroke-linejoin="round"/>
</svg>
