<svg width="22" height="19" viewBox="0 0 22 19" fill="none" xmlns="http://www.w3.org/2000/svg">
<path d="M3.71237 15.5339C3.3791 15.3385 3.11421 15.0728 2.91771 14.7369C2.72121 14.4001 2.62295 14.0228 2.62295 13.605V8.36805L0.555793 7.17532C0.367082 7.05826 0.226847 6.91958 0.135089 6.75929C0.0433305 6.599 -0.0016832 6.42159 4.80913e-05 6.22708C0.00177938 6.03257 0.0476585 5.85517 0.137686 5.69488C0.227713 5.53459 0.367515 5.39591 0.557091 5.27884L9.41265 0.253975C9.57019 0.163023 9.7325 0.0981856 9.89957 0.0594635C10.0666 0.0207414 10.238 0.000929878 10.4138 2.93643e-05C10.5895 -0.000871149 10.7613 0.0189404 10.9293 0.0594635C11.0972 0.0999866 11.2599 0.164374 11.4175 0.252624L21.443 5.9083C21.6265 6.02086 21.765 6.1618 21.8585 6.33109C21.9528 6.50129 22 6.68499 22 6.88221V14.1764C22 14.3673 21.9377 14.5276 21.813 14.6572C21.6884 14.7869 21.5343 14.8518 21.3508 14.8518C21.1672 14.8518 21.0127 14.7869 20.8872 14.6572C20.7617 14.5276 20.6998 14.3673 20.7015 14.1764V6.98622L18.2046 8.36805V13.605C18.2046 14.0228 18.1063 14.4001 17.9098 14.7369C17.7133 15.0737 17.4489 15.3394 17.1165 15.5339L11.4227 18.7406C11.2617 18.8352 11.0972 18.9023 10.9293 18.9419C10.7613 18.9815 10.5895 19.0009 10.4138 19C10.238 18.9991 10.0662 18.9797 9.89827 18.9419C9.73034 18.9041 9.56586 18.8365 9.40485 18.7393L3.71237 15.5339ZM10.1138 11.0696C10.2307 11.138 10.3346 11.1723 10.4255 11.1723C10.5172 11.1723 10.6215 11.138 10.7384 11.0696L19.2823 6.22708L10.7384 1.41158C10.6224 1.34225 10.5185 1.30758 10.4268 1.30758C10.335 1.30758 10.2311 1.34225 10.1151 1.41158L1.54523 6.22708L10.1138 11.0696ZM10.0891 17.5965C10.206 17.6659 10.3142 17.7005 10.4138 17.7005C10.5133 17.7005 10.6215 17.6659 10.7384 17.5965L16.5321 14.3398C16.6655 14.2534 16.7607 14.1539 16.8178 14.0413C16.8749 13.9287 16.9044 13.7855 16.9061 13.6117V9.11098L11.4305 12.2205C11.2686 12.315 11.1041 12.3821 10.937 12.4217C10.7717 12.4604 10.5973 12.4798 10.4138 12.4798C10.2302 12.4798 10.0554 12.4604 9.88918 12.4217C9.72298 12.383 9.55894 12.3155 9.39706 12.2191L3.92142 9.11233V13.6131C3.92142 13.7518 3.95042 13.8864 4.00842 14.017C4.06642 14.1467 4.16207 14.2547 4.29538 14.3412L10.0891 17.5965Z" fill="black" fill-opacity="0.7"/>
</svg>
