<svg width="22" height="22" viewBox="0 0 22 22" fill="none" xmlns="http://www.w3.org/2000/svg">
<path d="M7.75 14.7504C7.75 15.0156 7.64464 15.2699 7.45711 15.4575C7.26957 15.645 7.01522 15.7504 6.75 15.7504C6.48478 15.7504 6.23043 15.645 6.04289 15.4575C5.85536 15.2699 5.75 15.0156 5.75 14.7504C5.75 14.4851 5.85536 14.2308 6.04289 14.0433C6.23043 13.8557 6.48478 13.7504 6.75 13.7504C7.01522 13.7504 7.26957 13.8557 7.45711 14.0433C7.64464 14.2308 7.75 14.4851 7.75 14.7504ZM11.75 14.7504C11.75 15.0156 11.6446 15.2699 11.4571 15.4575C11.2696 15.645 11.0152 15.7504 10.75 15.7504C10.4848 15.7504 10.2304 15.645 10.0429 15.4575C9.85536 15.2699 9.75 15.0156 9.75 14.7504C9.75 14.4851 9.85536 14.2308 10.0429 14.0433C10.2304 13.8557 10.4848 13.7504 10.75 13.7504C11.0152 13.7504 11.2696 13.8557 11.4571 14.0433C11.6446 14.2308 11.75 14.4851 11.75 14.7504ZM15.75 14.7504C15.75 15.0156 15.6446 15.2699 15.4571 15.4575C15.2696 15.645 15.0152 15.7504 14.75 15.7504C14.4848 15.7504 14.2304 15.645 14.0429 15.4575C13.8554 15.2699 13.75 15.0156 13.75 14.7504C13.75 14.4851 13.8554 14.2308 14.0429 14.0433C14.2304 13.8557 14.4848 13.7504 14.75 13.7504C15.0152 13.7504 15.2696 13.8557 15.4571 14.0433C15.6446 14.2308 15.75 14.4851 15.75 14.7504Z" fill="black" fill-opacity="0.7"/>
<path d="M4.75 8.75037V6.75037C4.75 6.40971 4.77767 6.07637 4.833 5.75037M16.75 8.75037V6.75037C16.7501 5.53161 16.379 4.34173 15.6861 3.33907C14.9933 2.3364 14.0115 1.56851 12.8715 1.13758C11.7315 0.706649 10.4872 0.633113 9.30437 0.926758C8.12152 1.2204 7.05613 1.8673 6.25 2.78137M9.75 20.7504H6.75C3.922 20.7504 2.507 20.7504 1.629 19.8714C0.75 18.9934 0.75 17.5784 0.75 14.7504C0.75 11.9224 0.75 10.5074 1.629 9.62937C2.507 8.75037 3.922 8.75037 6.75 8.75037H14.75C17.578 8.75037 18.993 8.75037 19.871 9.62937C20.75 10.5074 20.75 11.9224 20.75 14.7504C20.75 17.5784 20.75 18.9934 19.871 19.8714C18.993 20.7504 17.578 20.7504 14.75 20.7504H13.75" stroke="black" stroke-opacity="0.7" stroke-width="1.5" stroke-linecap="round"/>
</svg>
