<svg width="16" height="15" viewBox="0 0 16 15" fill="none" xmlns="http://www.w3.org/2000/svg">
<path d="M15.5791 2.42962L8.19454 0.0307796C8.06822 -0.0102599 7.93164 -0.0102599 7.80532 0.0307796L0.420766 2.42962C0.298232 2.46943 0.191658 2.5458 0.11614 2.64792C0.0406225 2.75004 -9.5709e-06 2.87272 1.69103e-09 2.9986V8.99571C1.69103e-09 9.15476 0.0648344 9.3073 0.18024 9.41977C0.295646 9.53223 0.452171 9.59542 0.615379 9.59542C0.778588 9.59542 0.935112 9.53223 1.05052 9.41977C1.16592 9.3073 1.23076 9.15476 1.23076 8.99571V3.8307L3.81458 4.66954C3.12809 5.75037 2.90979 7.05252 3.20762 8.29007C3.50544 9.52763 4.29503 10.5994 5.40303 11.2701C4.01843 11.7994 2.82151 12.7566 1.94614 14.0655C1.90061 14.1315 1.86899 14.2056 1.85311 14.2835C1.83723 14.3615 1.83741 14.4417 1.85363 14.5196C1.86986 14.5975 1.90181 14.6715 1.94763 14.7372C1.99344 14.803 2.05221 14.8592 2.12052 14.9026C2.18883 14.946 2.26531 14.9758 2.34552 14.9901C2.42574 15.0045 2.50808 15.0032 2.58776 14.9862C2.66744 14.9693 2.74288 14.9371 2.80968 14.8915C2.87649 14.846 2.93333 14.7879 2.9769 14.7207C4.13612 12.9875 5.96687 11.9943 7.99993 11.9943C10.033 11.9943 11.8637 12.9875 13.023 14.7207C13.1132 14.8514 13.2526 14.9423 13.4111 14.9736C13.5696 15.005 13.7343 14.9743 13.8697 14.8882C14.0051 14.8021 14.1004 14.6676 14.1348 14.5136C14.1692 14.3597 14.1401 14.1987 14.0537 14.0655C13.1783 12.7566 11.9768 11.7994 10.5968 11.2701C11.7038 10.5994 12.4926 9.52835 12.7904 8.29171C13.0882 7.05506 12.8706 5.75381 12.1853 4.67329L15.5791 3.57132C15.7017 3.53154 15.8083 3.45517 15.8838 3.35306C15.9593 3.25094 16 3.12824 16 3.00235C16 2.87646 15.9593 2.75376 15.8838 2.65164C15.8083 2.54952 15.7017 2.47316 15.5791 2.43337V2.42962ZM11.6922 7.19657C11.6924 7.76544 11.5541 8.32624 11.2888 8.83296C11.0235 9.33968 10.6387 9.77788 10.166 10.1116C9.69328 10.4453 9.1461 10.6651 8.56935 10.7528C7.99261 10.8405 7.40273 10.7938 6.84813 10.6163C6.29353 10.4388 5.79001 10.1358 5.37887 9.73194C4.96773 9.32812 4.6607 8.83505 4.48297 8.29319C4.30524 7.75134 4.26186 7.17613 4.35641 6.61478C4.45096 6.05342 4.68073 5.52191 5.02688 5.06385L7.80532 5.96342C7.93164 6.00446 8.06822 6.00446 8.19454 5.96342L10.973 5.06385C11.4405 5.68158 11.6925 6.42903 11.6922 7.19657ZM7.99993 4.7655L2.56152 2.9986L7.99993 1.2317L13.4383 2.9986L7.99993 4.7655Z" fill="#008482"/>
</svg>
