<svg width="14" height="14" viewBox="0 0 14 14" fill="none" xmlns="http://www.w3.org/2000/svg">
<path d="M1 1.75C1 0.784 1.784 0 2.75 0H8.25C9.216 0 10 0.784 10 1.75V2.488C9.82 2.608 9.65 2.74 9.49 2.884C9.33525 2.75966 9.17147 2.64702 9 2.547V1.75C9 1.55109 8.92098 1.36032 8.78033 1.21967C8.63968 1.07902 8.44891 1 8.25 1H2.75C2.55109 1 2.36032 1.07902 2.21967 1.21967C2.07902 1.36032 2 1.55109 2 1.75V2.5H2.5C2.63261 2.5 2.75979 2.55268 2.85355 2.64645C2.94732 2.74021 3 2.86739 3 3C3 3.13261 2.94732 3.25979 2.85355 3.35355C2.75979 3.44732 2.63261 3.5 2.5 3.5H2V5.5H2.5C2.63261 5.5 2.75979 5.55268 2.85355 5.64645C2.94732 5.74021 3 5.86739 3 6C3 6.13261 2.94732 6.25979 2.85355 6.35355C2.75979 6.44732 2.63261 6.5 2.5 6.5H2V8.5H2.5C2.63261 8.5 2.75979 8.55268 2.85355 8.64645C2.94732 8.74021 3 8.86739 3 9C3 9.13261 2.94732 9.25979 2.85355 9.35355C2.75979 9.44732 2.63261 9.5 2.5 9.5H2V10.25C2 10.664 2.336 11 2.75 11H4.318C4.429 11.354 4.562 11.689 4.707 12H2.75C2.28587 12 1.84075 11.8156 1.51256 11.4874C1.18437 11.1592 1 10.7141 1 10.25V9.5H0.5C0.367392 9.5 0.240215 9.44732 0.146447 9.35355C0.0526784 9.25979 0 9.13261 0 9C0 8.86739 0.0526784 8.74021 0.146447 8.64645C0.240215 8.55268 0.367392 8.5 0.5 8.5H1V6.5H0.5C0.367392 6.5 0.240215 6.44732 0.146447 6.35355C0.0526784 6.25979 0 6.13261 0 6C0 5.86739 0.0526784 5.74021 0.146447 5.64645C0.240215 5.55268 0.367392 5.5 0.5 5.5H1V3.5H0.5C0.367392 3.5 0.240215 3.44732 0.146447 3.35355C0.0526784 3.25979 0 3.13261 0 3C0 2.86739 0.0526784 2.74021 0.146447 2.64645C0.240215 2.55268 0.367392 2.5 0.5 2.5H1V1.75ZM11.724 3.947C11.7832 3.91789 11.8361 3.87736 11.8796 3.82772C11.9231 3.77808 11.9563 3.72033 11.9773 3.65779C11.9984 3.59525 12.0069 3.52917 12.0022 3.46334C11.9976 3.39751 11.98 3.33325 11.9505 3.27426C11.9209 3.21526 11.88 3.16271 11.83 3.11961C11.78 3.07652 11.722 3.04374 11.6593 3.02317C11.5966 3.00261 11.5305 2.99465 11.4647 2.99977C11.3989 3.00489 11.3348 3.02298 11.276 3.053L10.935 3.223C10.3747 3.5032 9.89981 3.92867 9.56 4.455C9.28989 4.01108 8.91016 3.64409 8.45729 3.38929C8.00442 3.13448 7.49363 3.00043 6.974 3H6.5C6.36739 3 6.24021 3.05268 6.14645 3.14645C6.05268 3.24021 6 3.36739 6 3.5V3.974C6 4.8 6.331 5.549 6.868 6.094C5.868 6.399 5 7.417 5 9C5 11.021 6.213 12.739 6.793 13.45C7.096 13.823 7.544 14 7.986 14C8.519 14 9.019 13.744 9.331 13.312C9.34904 13.2835 9.37399 13.26 9.40354 13.2438C9.43309 13.2275 9.46627 13.219 9.5 13.219C9.53373 13.219 9.56691 13.2275 9.59646 13.2438C9.62601 13.26 9.65096 13.2835 9.669 13.312C9.981 13.744 10.481 14 11.014 14C11.456 14 11.904 13.822 12.207 13.45C12.787 12.74 14 11.022 14 9C14 7.087 12.736 6 11.5 6C11.028 6 10.616 6.11 10.303 6.23C10.1983 6.27067 10.0973 6.30833 10 6.343C10.0021 5.8806 10.1323 5.42783 10.3763 5.03503C10.6203 4.64222 10.9684 4.32478 11.382 4.118L11.724 3.947ZM9 6C8.47166 5.99326 7.96686 5.78039 7.59324 5.40676C7.21961 5.03314 7.00674 4.52834 7 4C7.52834 4.00674 8.03314 4.21961 8.40676 4.59324C8.78039 4.96686 8.99326 5.47166 9 6ZM8.534 12.708L8.52 12.727C8.45888 12.8114 8.37862 12.8802 8.2858 12.9277C8.19298 12.9751 8.09024 12.9999 7.986 13C7.90725 13.0028 7.82887 12.988 7.75656 12.9567C7.68425 12.9254 7.61984 12.8783 7.568 12.819C7.018 12.144 6 10.659 6 9C6 7.565 6.888 7 7.5 7C7.82 7 8.107 7.074 8.337 7.163C8.59595 7.2681 8.86194 7.35498 9.133 7.423C9.374 7.48 9.626 7.48 9.867 7.423C10.1381 7.35498 10.404 7.2681 10.663 7.163C10.893 7.074 11.181 7 11.5 7C12.111 7 13 7.565 13 9C13 10.658 11.982 12.144 11.432 12.819C11.3802 12.8783 11.3157 12.9254 11.2434 12.9567C11.1711 12.988 11.0927 13.0028 11.014 13C10.9098 12.9999 10.807 12.9751 10.7142 12.9277C10.6214 12.8802 10.5411 12.8114 10.48 12.727L10.466 12.707C10.3545 12.5557 10.2089 12.4327 10.0411 12.3479C9.87336 12.2631 9.68799 12.2189 9.5 12.2189C9.31201 12.2189 9.12664 12.2631 8.95885 12.3479C8.79106 12.4327 8.64553 12.5557 8.534 12.707M8.197 8.276C8.25609 8.39445 8.2658 8.5315 8.22399 8.65709C8.18219 8.78269 8.09229 8.88659 7.974 8.946C7.93378 8.96591 7.90162 8.99901 7.88287 9.03978C7.86412 9.08055 7.85993 9.12651 7.871 9.17L7.923 9.377C7.95536 9.50563 7.93529 9.64185 7.86721 9.75568C7.79914 9.86951 7.68863 9.95164 7.56 9.984C7.43137 10.0164 7.29515 9.99629 7.18132 9.92821C7.06749 9.86014 6.98536 9.74963 6.953 9.621L6.901 9.413C6.83467 9.14888 6.86046 8.87004 6.9741 8.62256C7.08775 8.37509 7.28244 8.17381 7.526 8.052C7.64455 7.9926 7.78185 7.98272 7.90768 8.02454C8.03352 8.06636 8.13759 8.15645 8.197 8.275" fill="black"/>
</svg>
