<svg width="9" height="9" viewBox="0 0 9 9" fill="none" xmlns="http://www.w3.org/2000/svg">
<path d="M4.16667 0C6.46792 0 8.33333 1.86542 8.33333 4.16667C8.33333 6.46792 6.46792 8.33333 4.16667 8.33333C1.86542 8.33333 0 6.46792 0 4.16667C0 1.86542 1.86542 0 4.16667 0ZM4.16667 0.833333C3.28261 0.833333 2.43477 1.18452 1.80964 1.80964C1.18452 2.43477 0.833333 3.28261 0.833333 4.16667C0.833333 5.05072 1.18452 5.89857 1.80964 6.52369C2.43477 7.14881 3.28261 7.5 4.16667 7.5C5.05072 7.5 5.89857 7.14881 6.52369 6.52369C7.14881 5.89857 7.5 5.05072 7.5 4.16667C7.5 3.28261 7.14881 2.43477 6.52369 1.80964C5.89857 1.18452 5.05072 0.833333 4.16667 0.833333ZM4.16667 1.66667C4.26872 1.66668 4.36722 1.70415 4.44349 1.77196C4.51975 1.83978 4.56848 1.93323 4.58042 2.03458L4.58333 2.08333V3.99417L5.71125 5.12208C5.78598 5.19707 5.82936 5.29768 5.83259 5.40349C5.83583 5.50931 5.79866 5.61238 5.72865 5.69178C5.65863 5.77118 5.56102 5.82096 5.45564 5.831C5.35025 5.84104 5.245 5.81059 5.16125 5.74583L5.12208 5.71125L3.87208 4.46125C3.80732 4.39644 3.76573 4.31208 3.75375 4.22125L3.75 4.16667V2.08333C3.75 1.97283 3.7939 1.86685 3.87204 1.78871C3.95018 1.71057 4.05616 1.66667 4.16667 1.66667Z" fill="#171919" fill-opacity="0.8"/>
</svg>
